<svg width="18" height="21" viewBox="0 0 18 21" fill="none" xmlns="http://www.w3.org/2000/svg">
<path d="M8.99961 1C6.87785 1 4.84312 1.89568 3.34309 3.48996C1.84284 5.08424 1 7.24674 1 9.50161C1 15.3109 8.22053 20.1755 8.52899 20.3774L9 20.6923L9.47101 20.3774C9.77917 20.1757 17 15.3111 17 9.50161C17 7.24685 16.1572 5.08441 14.6569 3.48996C13.1567 1.89568 11.1212 1 8.99961 1ZM8.99961 18.4401C7.47371 17.3129 2.77749 13.5094 2.77749 9.50133C2.77749 7.13895 3.96339 4.95604 5.8886 3.77474C7.81381 2.59377 10.1856 2.59377 12.1107 3.77474C14.0359 4.95593 15.2218 7.13884 15.2218 9.50133C15.2218 13.5094 10.5254 17.3128 8.99961 18.4401Z" fill="#333333" stroke="#F8F9F9" stroke-width="0.5"/>
<path d="M8.99857 6.03809C8.13425 6.03809 7.30527 6.4029 6.6939 7.05257C6.08274 7.70203 5.73926 8.58298 5.73926 9.5017C5.73926 10.4202 6.08276 11.3012 6.6939 11.9506C7.30527 12.6003 8.13425 12.9651 8.99857 12.9651C9.8629 12.9651 10.6919 12.6003 11.3032 11.9506C11.9144 11.3012 12.2579 10.4202 12.2579 9.5017C12.2579 8.58298 11.9144 7.70203 11.3032 7.05257C10.6919 6.40288 9.8629 6.03809 8.99857 6.03809ZM8.99857 11.076C8.60568 11.076 8.2289 10.91 7.95092 10.6148C7.67314 10.3196 7.5171 9.91923 7.5171 9.5017C7.5171 9.08418 7.67314 8.68356 7.95092 8.38837C8.2289 8.09319 8.60567 7.92737 8.99857 7.92737C9.39148 7.92737 9.76824 8.09319 10.0462 8.38837C10.324 8.68356 10.48 9.08417 10.48 9.5017C10.48 9.91922 10.324 10.3196 10.0462 10.6148C9.76825 10.91 9.39148 11.076 8.99857 11.076Z" fill="#333333" stroke="#F8F9F9" stroke-width="0.5"/>
</svg>
